<?xml version="1.0" standalone="no"?>
<!DOCTYPE svg PUBLIC "-//W3C//DTD SVG 20010904//EN"
 "http://www.w3.org/TR/2001/REC-SVG-20010904/DTD/svg10.dtd">
<svg version="1.0" xmlns="http://www.w3.org/2000/svg"
 width="500.000000pt" height="500.000000pt" viewBox="0 0 500.000000 500.000000"
 preserveAspectRatio="xMidYMid meet">
<metadata>
Created by potrace 1.14, written by Peter Selinger 2001-2017
</metadata>
<g transform="translate(0.000000,500.000000) scale(0.100000,-0.100000)"
fill="#000000" stroke="none">
<path d="M2333 3659 c-8 -8 -10 -46 -6 -125 4 -83 3 -114 -6 -114 -6 0 -10 5
-8 11 1 6 -4 14 -11 16 -7 3 -19 -12 -30 -36 l-17 -41 -90 85 c-49 46 -95 84
-101 85 -11 0 -185 -182 -192 -200 -3 -8 160 -170 197 -197 20 -13 29 -52 14
-54 -5 -1 -79 -2 -165 -4 -87 -1 -161 -4 -164 -8 -8 -8 -6 -266 2 -278 3 -5
70 -9 150 -9 190 0 190 -1 54 -130 l-103 -97 92 -101 c51 -56 98 -102 105
-102 7 0 21 8 32 18 103 96 236 212 243 212 23 0 29 -35 30 -183 1 -86 4 -164
7 -172 8 -20 268 -22 281 -2 4 6 8 82 8 167 0 139 2 155 18 158 13 3 17 -3 17
-22 0 -17 6 -26 16 -26 9 0 12 5 8 13 -8 13 6 1 116 -102 41 -39 80 -71 86
-71 12 0 186 181 192 200 2 5 -5 17 -16 27 -148 142 -182 178 -180 192 3 14
28 17 168 21 l165 5 3 143 c2 110 0 142 -10 143 -7 1 -81 2 -165 2 -111 2
-156 6 -165 15 -11 11 7 32 101 121 l115 107 -93 102 c-51 56 -98 102 -105
102 -6 0 -68 -52 -136 -115 -109 -100 -160 -134 -160 -107 -1 85 -13 340 -15
350 -6 16 -266 17 -282 1z"/>
<path d="M3630 2080 c0 -6 -73 -10 -197 -10 -124 0 -193 -4 -184 -9 21 -14 24
-367 3 -387 -11 -12 17 -14 180 -14 138 0 197 -3 206 -12 9 -9 12 1 12 47 0
46 -3 56 -12 47 -17 -17 -278 -17 -279 1 -1 6 -1 30 -2 52 l-1 40 83 3 c53 2
88 -1 97 -9 12 -10 14 -3 14 41 0 44 -2 51 -14 41 -9 -8 -45 -11 -97 -9 l-83
3 1 38 c0 20 1 42 2 47 2 16 268 13 274 -2 3 -7 6 13 6 45 1 31 -1 57 -4 57
-3 0 -5 -4 -5 -10z"/>
<path d="M1305 2048 c6 -25 -129 -326 -164 -365 l-19 -23 70 0 c62 0 69 2 58
15 -10 13 -10 23 4 53 l17 39 93 0 93 1 17 -34 c19 -41 20 -61 4 -67 -7 -3 25
-6 72 -6 63 0 80 2 67 10 -26 15 -190 348 -184 376 4 22 2 23 -65 23 -66 0
-68 -1 -63 -22z m94 -154 c17 -37 30 -69 27 -71 -2 -2 -31 -3 -65 -1 l-61 3
32 68 c17 37 32 67 34 67 1 0 16 -30 33 -66z"/>
<path d="M1668 2058 c8 -8 12 -66 12 -193 0 -127 -4 -185 -12 -193 -9 -9 29
-12 173 -12 131 0 189 -4 197 -12 9 -9 12 1 11 48 0 32 -3 53 -6 47 -3 -10
-41 -13 -139 -13 l-134 0 0 164 c0 122 3 166 13 169 6 3 -19 6 -57 6 -55 1
-67 -2 -58 -11z"/>
<path d="M2258 2058 c8 -8 12 -66 12 -193 0 -127 -4 -185 -12 -193 -9 -9 3
-12 58 -11 38 0 63 3 57 6 -9 3 -13 30 -13 84 l0 79 54 0 53 0 47 -71 c26 -39
45 -77 42 -85 -4 -11 9 -14 71 -14 l76 0 -26 20 c-14 11 -44 48 -67 81 -33 48
-39 63 -28 70 7 5 18 9 25 9 6 0 23 14 37 31 20 23 26 41 26 78 0 60 -26 96
-78 111 -55 15 -350 14 -334 -2z m310 -70 c13 -13 16 -57 4 -75 -7 -11 -68
-17 -164 -14 l-48 1 0 50 0 50 98 0 c63 0 102 -4 110 -12z"/>
<path d="M2892 2051 c9 -16 3 -36 -42 -127 -29 -60 -64 -134 -77 -164 -14 -30
-34 -65 -46 -77 l-20 -23 74 1 c41 0 68 3 62 6 -23 9 -9 73 21 95 5 3 48 5 95
5 l86 -2 18 -38 c14 -30 15 -42 6 -53 -10 -12 1 -14 67 -14 l77 0 -20 23 c-11
12 -57 97 -102 190 -69 138 -81 170 -71 182 11 13 3 15 -64 15 -72 0 -76 -1
-64 -19z m103 -178 l23 -48 -60 -3 c-33 -2 -62 -1 -64 1 -3 2 10 36 28 76 30
65 34 69 41 46 5 -13 19 -46 32 -72z"/>
<path d="M3718 2058 c17 -17 17 -384 0 -391 -7 -3 18 -6 56 -6 55 -1 67 2 58
11 -17 17 -17 369 0 386 9 9 -3 12 -57 12 -54 0 -66 -3 -57 -12z"/>
<path d="M1745 1505 c-51 -50 -13 -125 62 -125 51 1 78 19 78 53 1 25 -2 27
-37 27 -27 0 -38 -4 -38 -15 0 -9 10 -15 26 -15 32 0 23 -16 -12 -23 -19 -3
-34 2 -50 18 -44 44 2 99 64 77 24 -8 32 -7 36 3 5 15 -23 25 -72 25 -22 0
-41 -8 -57 -25z"/>
<path d="M2054 1455 c1 -69 3 -75 22 -75 17 0 20 5 16 30 -4 25 -1 30 17 30
14 0 28 -11 39 -30 11 -19 25 -30 40 -30 l23 0 -23 31 c-21 28 -22 31 -5 40
20 11 23 49 5 67 -7 7 -39 12 -73 12 l-61 0 0 -75z m109 46 c4 -1 7 -8 7 -16
0 -11 -11 -15 -40 -15 -33 0 -40 3 -40 19 0 19 4 20 73 12z"/>
<path d="M2380 1510 c-20 -20 -27 -74 -12 -96 12 -18 49 -34 81 -34 72 0 104
106 42 139 -33 18 -89 13 -111 -9z m91 -10 c23 -13 26 -62 5 -79 -19 -16 -66
-10 -79 10 -14 22 -1 67 21 72 28 8 33 7 53 -3z"/>
<path d="M2688 1468 c4 -72 17 -88 72 -88 55 0 68 16 72 88 3 53 1 62 -14 62
-14 0 -18 -11 -20 -57 l-3 -58 -35 0 -35 0 -3 58 c-2 46 -6 57 -20 57 -15 0
-17 -9 -14 -62z"/>
<path d="M3004 1455 c0 -65 3 -75 18 -75 12 0 17 7 15 28 -2 25 1 27 46 33 63
7 86 39 51 73 -10 11 -34 16 -73 16 l-57 0 0 -75z m99 46 c4 -1 7 -8 7 -16 0
-10 -10 -15 -33 -15 -19 0 -37 3 -40 7 -12 12 15 33 37 29 11 -3 24 -5 29 -5z"/>
</g>
</svg>
